<?xml version="1.0" encoding="UTF-8" standalone="no"?>
<svg
   xmlns:dc="http://purl.org/dc/elements/1.1/"
   xmlns:cc="http://creativecommons.org/ns#"
   xmlns:rdf="http://www.w3.org/1999/02/22-rdf-syntax-ns#"
   xmlns:svg="http://www.w3.org/2000/svg"
   xmlns="http://www.w3.org/2000/svg"
   xmlns:sodipodi="http://sodipodi.sourceforge.net/DTD/sodipodi-0.dtd"
   xmlns:inkscape="http://www.inkscape.org/namespaces/inkscape"
   inkscape:version="1.0 (4035a4f, 2020-05-01)"
   sodipodi:docname="flolac-logo.svg"
   viewBox="0 0 1918.6667 726.66669"
   height="726.66669"
   width="1918.6667"
   id="svg320"
   version="1.1">
  <metadata
     id="metadata326">
    <rdf:RDF>
      <cc:Work
         rdf:about="">
        <dc:format>image/svg+xml</dc:format>
        <dc:type
           rdf:resource="http://purl.org/dc/dcmitype/StillImage" />
        <dc:title></dc:title>
      </cc:Work>
    </rdf:RDF>
  </metadata>
  <defs
     id="defs324" />
  <sodipodi:namedview
     inkscape:current-layer="g328"
     inkscape:window-maximized="0"
     inkscape:window-y="244"
     inkscape:window-x="456"
     inkscape:cy="376.89487"
     inkscape:cx="876.90407"
     inkscape:zoom="0.38001405"
     showgrid="false"
     id="namedview322"
     inkscape:window-height="653"
     inkscape:window-width="1076"
     inkscape:pageshadow="2"
     inkscape:pageopacity="0"
     guidetolerance="10"
     gridtolerance="10"
     objecttolerance="10"
     borderopacity="1"
     bordercolor="#666666"
     pagecolor="#ffffff" />
  <g
     id="g328"
     inkscape:label="Image"
     inkscape:groupmode="layer">
    <path
       id="path334"
       d="m 1298.2268,654.71977 c -5.7185,-1.42994 -9.8192,-5.98765 -10.8444,-12.05308 -0.8586,-5.07975 -51.0478,-560.560367 -50.6797,-560.910121 0.3081,-0.2928 71.252,14.642521 71.705,15.095561 0.1407,0.140633 2.5908,29.54077 5.4447,65.33362 2.854,35.79286 5.3316,65.22038 5.5056,65.39448 1.0559,1.05585 138.3836,29.55534 139.0618,28.85936 0.4143,-0.4251 13.8814,-24.02292 29.927,-52.43958 16.0455,-28.41667 30.4765,-53.93741 32.0689,-56.71275 l 2.8953,-5.04609 35.432,7.52253 c 19.4877,4.13739 35.5037,7.60813 35.5912,7.71275 0.3426,0.40972 -279.7256,490.33692 -281.5924,492.59366 -3.2377,3.91388 -9.4715,5.91078 -14.515,4.64966 z m 78.8246,-252.18076 c 20.0393,-35.5345 36.3256,-64.71091 36.1918,-64.83647 -0.4754,-0.44632 -86.113,-18.38832 -86.3996,-18.10166 -0.1604,0.16046 2.4342,33.39092 5.7658,73.84545 3.3316,40.45452 6.067,74.15369 6.0786,74.88702 0.035,2.17281 0.029,2.18113 38.3634,-65.79434 z M 728.33335,586.59263 C 666.68108,583.90153 634.13562,550.5278 626.17828,481.83779 624.37324,466.25619 624.36764,214.49173 626.17228,200.724 635.50003,129.55198 674.8036,93.320936 742.66693,93.33617 809,93.35104 846.43433,127.25958 856.44246,196.39549 c 1.44014,9.94853 2.24774,258.73134 0.8968,276.27119 -6.21846,80.73846 -47.81193,117.47001 -129.00566,113.92595 z m 25.33333,-67.65805 c 15.91987,-3.80858 24.82007,-16.03929 28.01273,-38.4954 1.49407,-10.50918 1.457,-269.36179 -0.04,-279.68695 -4.07966,-28.13668 -17.85633,-41.02094 -42.63926,-39.87727 -21.21474,0.97901 -32.92354,13.21309 -37.4452,39.12505 -1.88594,10.80766 -1.89534,272.14325 -0.01,282.00001 5.7604,30.11879 24.65266,43.50616 52.122,36.93456 z M 1737,586.58068 c -57.6489,-2.41743 -86.1254,-30.03373 -95.4642,-92.58066 -1.4319,-9.58965 -2.2298,-283.95497 -0.8668,-298.00001 6.9535,-71.64773 50.1272,-107.809514 121.8625,-102.070654 66.5884,5.327107 93.4181,43.670504 93.4621,133.570654 l 0.01,13.16666 h -36.9044 -36.9044 l -0.3854,-21.5 c -0.737,-41.11831 -5.956,-53.47608 -24.3086,-57.55916 -22.075,-4.91121 -37.1174,5.73084 -41.2994,29.21816 -1.3714,7.70133 -2.1849,267.82339 -0.8917,285.09354 2.4861,33.20039 14.306,46.59984 38.7981,43.98286 21.6608,-2.31445 28.3171,-16.38694 29.0432,-61.40206 l 0.3521,-21.83333 h 37.2503 37.2502 l -0.01,14.5 c -0.071,99.1577 -35.6623,138.99212 -120.9902,135.414 z M 60.000001,340.00001 V 100 h 93.333339 93.33333 v 34.33334 34.33333 H 190.33334 134 v 63.33334 63.33333 h 53.66667 53.66667 v 34.33334 34.33333 H 187.66667 134 v 108.00001 108 H 97.000002 60.000001 Z m 302.666669,-0.005 V 99.98903 l 36.83334,0.17231 36.83333,0.17231 0.16773,206.83334 0.16772,206.83334 h 60.18991 60.1899 l -3.16136,32.83333 c -1.73874,18.05834 -3.17467,32.90834 -3.19096,33.00001 -0.0163,0.0914 -42.3296,0.16635 -94.02961,0.16635 h -94 V 339.99436 Z m 622.16575,0.17231 0.1676,-239.83334 36.83338,-0.17231 36.8333,-0.17231 V 306.99468 514.00033 H 1119 c 47.8245,0 60.3325,0.17277 60.3292,0.83333 0,0.45834 -1.3522,14.88918 -3,32.06856 -1.6477,17.17936 -2.9958,31.65437 -2.9958,32.16667 0,0.79309 -14.0117,0.93144 -94.3343,0.93144 h -94.33428 z"
       style="fill:#000000;stroke-width:0.666667" />
  </g>
</svg>
