<svg id="flolac-logo" version="1.1" xmlns="http://www.w3.org/2000/svg" x="0px" y="0px"
	 viewBox="0 0 425.2 141.73">
<g fill="#FFF">
	<path d="M0.39,7.32h44.1v16.2H17.85V53.3h25.37v16.21H17.85v51.02H0.39V7.32z"/>
	<path d="M71.74,7.32H89.2v97.6h28.47l-1.48,15.61H71.74V7.32z"/>
	<path d="M188.71,37.36v52.87c0,21.69-9.21,31.95-28.39,31.95c-18.4,0-26.69-10.52-26.69-31.65v-53.3 c0-21.68,10.92-31.57,27.79-31.57C178.59,5.66,188.71,15.58,188.71,37.36z M151.42,35.65V92.6c0,9.41,3.4,13.83,9.69,13.83
		c6.78,0,9.82-3.12,9.82-14.08V35.52c0-8.99-2.76-13.96-9.84-13.96C154.8,21.57,151.42,26.07,151.42,35.65z"/>
	<path d="M218.59,7.32h17.46v97.6h28.47l-1.48,15.61h-44.45V7.32z"/>
	<path d="M424.58,86.68v4.41c0,12.95-2.16,31.09-26.1,31.09c-20.97,0-25.41-13.1-25.41-30.38V34.72 c0-17.47,7.92-29.06,25.71-29.06c21.23,0,25.29,14.08,25.29,29.76v5.07h-17.5v-7.12c0-7.52-1.76-11.81-7.83-11.81
		c-5.96,0-7.89,4.12-7.89,11.87V93.3c0,7.39,1.47,13.13,8.1,13.13c6.3,0,7.98-4.99,7.98-13.41v-6.33H424.58z"/>
	<path d="M345.6,17.21l-15.35,27.15l-0.14-0.03l-32.66-6.93l-0.01-0.15l-2.45-30.78L277.9,2.84l11.98,132.24 c0.14,1.55,1.21,2.77,2.74,3.1c1.53,0.34,3-0.33,3.78-1.68l66.07-115.72L345.6,17.21z M319.59,63.59l-17.45,30.95l-2.93-35.55
		l0.26,0.06l20.26,4.3L319.59,63.59z"/>
</g>
</svg>
